{"title":"Ride Along (2014) Blurred Subtitles-BDM","uid":9553715,"size":1084080819,"categoryP":"video","categoryS":"movies","magnet":"?xt=urn:btih:351f0f317eb48a8e9be05c8d860078eb7e84cf5e&amp;dn=Ride+Along+%282014%29+Blurred+Subtitles-BDM&amp;tr=udp%3A%2F%2Ftracker.openbittorrent.com%3A80&amp;tr=udp%3A%2F%2Fopen.demonii.com%3A1337&amp;tr=udp%3A%2F%2Ftracker.coppersurfer.tk%3A6969&amp;tr=udp%3A%2F%2Fexodus.desync.com%3A6969","seeders":1,"leechers":0,"uploader":"BigDogMoya","files":-1,"time":1391315530,"description":"*There are subs in the beginning that show up on the top part of the screen that I didn't blur because they only appear for first two minutes or so, other than that all the other ones have been blurred out. Seed &amp; Enjoy!\n\n*Also check the sample and screens for quality, Chinese subs are larger and a bit harder to blur than Korean subs.\n\n\nTook this torrent and blurred the subtitles,\n   &lt;a href=&quot;\nhttp://thepiratebay.se/torrent/9549556/Ride_Along_2014_KORSUB_HDRip_XViD_NO1KNOWS&quot; rel=&quot;nofollow&quot; target=&quot;_NEW&quot;&gt;\nhttp://thepiratebay.se/torrent/9549556/Ride_Along_2014_KORSUB_HDRip_XViD_NO1KNOWS&lt;/a&gt;\n\n\nIMDB Link:\n   &lt;a href=&quot;\nhttp://www.imdb.com/title/tt1408253/&quot; rel=&quot;nofollow&quot; target=&quot;_NEW&quot;&gt;\nhttp://www.imdb.com/title/tt1408253/&lt;/a&gt;\n\n\nScreen Shots:\n   &lt;a href=&quot;\nhttp://i.imgur.com/UVhvnoB.png&quot; rel=&quot;nofollow&quot; target=&quot;_NEW&quot;&gt;\nhttp://i.imgur.com/UVhvnoB.png&lt;/a&gt;\n &lt;a href=&quot;\nhttp://i.imgur.com/9eFIblr.png&quot; rel=&quot;nofollow&quot; target=&quot;_NEW&quot;&gt;\nhttp://i.imgur.com/9eFIblr.png&lt;/a&gt;\n &lt;a href=&quot;\nhttp://i.imgur.com/gPVF6vy.png&quot; rel=&quot;nofollow&quot; target=&quot;_NEW&quot;&gt;\nhttp://i.imgur.com/gPVF6vy.png&lt;/a&gt;\n &lt;a href=&quot;\nhttp://i.imgur.com/5yC20zm.png&quot; rel=&quot;nofollow&quot; target=&quot;_NEW&quot;&gt;\nhttp://i.imgur.com/5yC20zm.png&lt;/a&gt;\n &lt;a href=&quot;\nhttp://i.imgur.com/RFHWrCz.png&quot; rel=&quot;nofollow&quot; target=&quot;_NEW&quot;&gt;\nhttp://i.imgur.com/RFHWrCz.png&lt;/a&gt;\n\n\nAlso included a sample, enjoy.\t\n\n\nVideo &amp; Audio Information:\n\nideo\nID                                       : 1\nFormat                                   : AVC\nFormat/Info                              : Advanced Video Codec\nFormat profile                           : &lt;a class=&quot;__cf_email__&quot; href=&quot;/cdn-cgi/l/email-protection&quot; data-cfemail=&quot;7830111f1038344b5648&quot;&gt;[email&amp;#160;protected]&lt;/a&gt;&lt;script cf-hash='f9e31' type=&quot;text/javascript&quot;&gt;\n/* &lt;![CDATA[ */!function(){try{var t=&quot;currentScript&quot;in document?document.currentScript:function(){for(var t=document.getElementsByTagName(&quot;script&quot;),e=t.length;e--;)if(t[e].getAttribute(&quot;cf-hash&quot;))return t[e]}();if(t&amp;&amp;t.previousSibling){var e,r,n,i,c=t.previousSibling,a=c.getAttribute(&quot;data-cfemail&quot;);if(a){for(e=&quot;&quot;,r=parseInt(a.substr(0,2),16),n=2;a.length-n;n+=2)i=parseInt(a.substr(n,2),16)^r,e+=String.fromCharCode(i);e=document.createTextNode(e),c.parentNode.replaceChild(e,c)}}}catch(u){}}();/* ]]&gt; */&lt;/script&gt;\nFormat settings, CABAC                   : Yes\nFormat settings, ReFrames                : 4 frames\nCodec ID                                 : avc1\nCodec ID/Info                            : Advanced Video Coding\nDuration                                 : 1h 39mn\nBit rate                                 : 1 304 Kbps\nWidth                                    : 712 pixels\nHeight                                   : 296 pixels\nDisplay aspect ratio                     : 2.40:1\nFrame rate mode                          : Constant\nFrame rate                               : 30.000 fps\nColor space                              : YUV\nChroma subsampling                       : 4:2:0\nBit depth                                : 8 bits\nScan type                                : Progressive\nBits/(Pixel*Frame)                       : 0.206\nStream size                              : 927 MiB (90%)\nWriting library                          : x264 core 123 r2189 35cf912\n\n\nAudio\nID                                       : 2\nFormat                                   : AAC\nFormat/Info                              : Advanced Audio Codec\nFormat profile                           : LC\nCodec ID                                 : 40\nDuration                                 : 1h 39mn\nBit rate mode                            : Constant\nBit rate                                 : 128 Kbps\nChannel(s)                               : 2 channels\nChannel positions                        : Front: L R\nSampling rate                            : 48.0 KHz\nCompression mode                         : Lossy\nStream size                              : 91.0 MiB (9%)\nLanguage                                 : unk","torrent":{"xt":"urn:btih:351f0f317eb48a8e9be05c8d860078eb7e84cf5e","amp;dn":"Ride+Along+%282014%29+Blurred+Subtitles-BDM","amp;tr":["udp%3A%2F%2Ftracker.openbittorrent.com%3A80","udp%3A%2F%2Fopen.demonii.com%3A1337","udp%3A%2F%2Ftracker.coppersurfer.tk%3A6969","udp%3A%2F%2Fexodus.desync.com%3A6969"],"infoHash":"351f0f317eb48a8e9be05c8d860078eb7e84cf5e","infoHashBuffer":{"type":"Buffer","data":[53,31,15,49,126,180,138,142,155,224,92,141,134,0,120,235,126,132,207,94]},"announce":[],"urlList":[]}}